<?xml version="1.0" encoding="UTF-8"?>
<svg id="Calque_1" xmlns="http://www.w3.org/2000/svg" version="1.1" viewBox="0 0 800 800">
  <!-- Generator: Adobe Illustrator 30.1.0, SVG Export Plug-In . SVG Version: 2.1.1 Build 136)  -->
  <defs>
    <style>
      .st0 {
        font-size: 47.09px;
      }

      .st0, .st1 {
        font-family: InriaSerif-Regular, 'Inria Serif';
      }

      .st0, .st1, .st2, .st3, .st4 {
        fill: #002c4f;
      }

      .st1 {
        font-size: 34.4px;
      }

      .st2 {
        font-family: InriaSerif-Light, 'Inria Serif';
        font-size: 38.89px;
        font-weight: 300;
        letter-spacing: .2em;
      }

      .st5 {
        stroke-width: 7px;
      }

      .st5, .st6, .st7 {
        stroke: #002c4f;
      }

      .st5, .st7 {
        fill: none;
      }

      .st3 {
        font-size: 101.93px;
      }

      .st3, .st8 {
        font-family: InriaSerif-Bold, 'Inria Serif';
        font-weight: 700;
      }

      .st8 {
        font-size: 63.72px;
      }

      .st8, .st6 {
        fill: #fff;
      }

      .st6 {
        stroke-width: 2px;
      }
    </style>
  </defs>
  <path class="st4" d="M397.76,211.83h-77.96v81.33c0,10.52,2.18,41,19.88,59.42,21.28,22.44,58.07,35.55,58.07,35.55,0,0,0,0,.01,0v-176.29Z"/>
  <polygon class="st6" points="390.78 237.9 368.15 237.9 368.15 222.42 348.75 222.42 348.75 237.9 326.11 237.9 326.11 257.29 348.75 257.29 348.75 352.36 368.15 352.36 368.15 257.29 390.78 257.29 390.78 237.9"/>
  <g>
    <rect class="st4" x="397.99" y="237.12" width="77.97" height="3.65"/>
    <rect class="st4" x="397.99" y="225.28" width="77.97" height="4.64"/>
    <rect class="st4" x="397.99" y="230.53" width="77.97" height="5.84"/>
  </g>
  <g>
    <rect class="st4" x="397.75" y="266.6" width="77.97" height="3.65"/>
    <rect class="st4" x="397.75" y="254.76" width="77.97" height="4.64"/>
    <rect class="st4" x="397.75" y="260.01" width="77.97" height="5.84"/>
  </g>
  <path class="st4" d="M404.3,330.99s3.09,15.39,0,19.17c-3.12,3.74-7.65,5.9-4.91,18.47,0,0,1.13-8.91,6.76-11.84,0,0,.52,3.4,1.56,5.16.99,1.69,2.36,3.21,2.36,6.81s-3.05,5.5-4.45,7.02c0,0,10.26-1.73,9.75-10.08-.39-6.24-3.1-9.17-3.1-9.17,0,0,11.24,5.22,7.57,14.99,0,0,4.9-8.25,1.62-14.08-1.7-3.02-3.22-2.96-4.72-5.5-1.58-2.49-2.08-14.21.66-20.76l-13.1-.2Z"/>
  <path class="st4" d="M410.75,342.53l-3.05-5.84-3.07,5.84-3.01-5.84-3.15,2.36v-5.05s3.55-3.93,4.91-6.35c2.64-4.84,2.96-8.25,2.96-8.25h8.88s.28,3.41,2.93,8.25c1.29,2.43,4.88,6.35,4.88,6.35v5.05l-3.07-2.36-3.15,5.84-3.02-5.84-3.04,5.84Z"/>
  <path class="st4" d="M410.75,328.06l-2.72-5.19-2.67,5.19-2.79-5.19-2.71,2.03v-4.44s3.14-3.55,4.32-5.64c2.36-4.32,2.61-7.33,2.61-7.33h7.93s.26,3.01,2.62,7.33c1.17,2.09,4.33,5.64,4.33,5.64v4.44l-2.74-2.03-2.71,5.19-2.76-5.19-2.71,5.19Z"/>
  <path class="st4" d="M410.75,314.81l-3.74-5.16-4.78,3.4v-2.42s2.36-3.99,3.2-6.84c1.36-4.97,1.58-8.16,1.58-8.16h7.55s.16,3.18,1.54,8.16c.84,2.84,3.24,6.84,3.24,6.84v2.42l-4.78-3.4-3.81,5.16Z"/>
  <polygon class="st4" points="410.75 302.43 413.73 298.28 417.47 301.04 417.47 288.2 413.73 292.33 410.75 285.13 407.79 292.33 404.08 288.2 404.08 301.04 407.79 298.28 410.75 302.43"/>
  <path class="st4" d="M444.63,351.95c-1.54-2.49-2.02-14.21.73-20.76l-13.09-.2s3.01,15.39,0,19.17c-3.08,3.74-7.66,5.9-4.92,18.47,0,0,1.12-8.91,6.78-11.84,0,0,.49,3.4,1.49,5.16.58.91,1.27,1.77,1.77,3.01,1.71-1.24,3.46-2.55,5.16-3.87-.95-3.06-2.32-4.57-2.32-4.57,0,0,2.2,1.04,4.3,2.93,1.36-1.05,2.71-2.23,4.04-3.33-1.36-1.77-2.61-2.09-3.93-4.18Z"/>
  <path class="st4" d="M470.69,319.4h-8.77s-.39,3.41-3,8.25c-1.31,2.43-4.95,6.35-4.95,6.35v5.05l3.17-2.36,3.08,5.84,3.01-5.84.49.93c3.12-5.59,5.4-11.54,7.16-17.43-.11-.53-.19-.8-.19-.8Z"/>
  <path class="st4" d="M438.48,342.53l-3.01-5.84-3.04,5.84-3.09-5.84-3.09,2.36v-5.05s3.59-3.93,4.9-6.35c2.66-4.84,2.95-8.25,2.95-8.25h8.84s.33,3.41,3,8.25c1.29,2.43,4.91,6.35,4.91,6.35v5.05l-3.15-2.36-3.07,5.84-3.08-5.84-3.08,5.84Z"/>
  <path class="st4" d="M438.48,328.06l-2.68-5.19-2.72,5.19-2.71-5.19-2.67,2.03v-4.44s3.11-3.55,4.28-5.64c2.3-4.32,2.61-7.33,2.61-7.33h7.89s.24,3.01,2.59,7.33c1.21,2.09,4.35,5.64,4.35,5.64v4.44l-2.74-2.03-2.7,5.19-2.71-5.19-2.79,5.19Z"/>
  <path class="st4" d="M438.48,314.81l-3.72-5.16-4.79,3.4v-2.42s2.43-3.99,3.18-6.84c1.43-4.97,1.61-8.16,1.61-8.16h7.52s.2,3.18,1.58,8.16c.84,2.84,3.27,6.84,3.27,6.84v2.42l-4.85-3.4-3.8,5.16Z"/>
  <polygon class="st4" points="438.48 302.43 441.51 298.28 445.29 301.04 445.29 288.2 441.51 292.33 438.48 285.13 435.55 292.33 431.79 288.2 431.79 301.04 435.55 298.28 438.48 302.43"/>
  <path class="st4" d="M470.23,307.49h-7.91s-.24,3.01-2.56,7.33c-1.17,2.09-4.32,5.64-4.32,5.64v4.44l2.68-2.03,2.76,5.19,2.7-5.19,2.7,5.19,2.71-5.19.65,1.19c1.18-3.34,2.04-6.68,2.83-9.94-1.99-3.95-2.24-6.62-2.24-6.62Z"/>
  <path class="st4" d="M471.61,303.79c-1.38-4.97-1.5-8.16-1.5-8.16h-7.6s-.19,3.18-1.55,8.16c-.8,2.84-3.18,6.84-3.18,6.84v2.42l4.74-3.4,3.77,5.16,3.83-5.16,2.81,2.09c.33-1.11.49-2.21.72-3.34-.72-1.36-1.58-3.16-2.03-4.6Z"/>
  <polygon class="st4" points="466.27 302.43 469.3 298.28 473.04 301.04 473.04 288.2 469.3 292.33 466.27 285.13 463.29 292.33 459.56 288.2 459.56 301.04 463.29 298.28 466.27 302.43"/>
  <path class="st5" d="M399.24,387.31c-1.39.54-2.94.54-4.33,0-8.19-3.19-37.71-15.55-55.9-34.73-17.71-18.42-19.88-48.89-19.88-59.42v-75.3c0-3.33,2.7-6.03,6.03-6.03h143.86c3.33,0,6.03,2.7,6.03,6.03v75.3c0,10.52-2.17,41-19.84,59.42-18.22,19.18-47.78,31.55-55.97,34.74Z"/>
  <line class="st5" x1="397.07" y1="210.15" x2="397.07" y2="388.13"/>
  <line class="st5" x1="475.04" y1="285.27" x2="397.07" y2="285.27"/>
  <polygon class="st4" points="436.96 272.45 438.01 275.59 441.3 275.59 438.64 277.55 439.63 280.67 436.96 278.74 434.33 280.67 435.33 277.55 432.65 275.59 435.96 275.59 436.96 272.45"/>
  <path class="st4" d="M436.97,220.13c-1.48,0-2.77-.95-3.25-2.26-.17.4-.25.84-.25,1.28,0,1.93,1.56,3.51,3.51,3.51s3.52-1.58,3.52-3.51c0-.44-.1-.88-.25-1.28-.51,1.32-1.76,2.26-3.27,2.26Z"/>
  <polygon class="st4" points="436.96 243.39 438.01 246.54 441.3 246.54 438.64 248.49 439.63 251.61 436.96 249.68 434.33 251.61 435.33 248.49 432.65 246.54 435.96 246.54 436.96 243.39"/>
  <g>
    <path class="st4" d="M392.18,444.41c-6.82,13.4,6.51,13.83,6.51,13.83,13.4-3.04,5.4-13.83,5.4-13.83h-11.91Z"/>
    <path class="st4" d="M391.99,433.43c-.14.05.31,4.87.52,7,.06.57.53,1,1.1,1h9.57c.58,0,1.06-.45,1.1-1.03l.4-5.79c.04-.64-.46-1.18-1.1-1.18-3.13-.01-11.45-.04-11.6,0Z"/>
    <path class="st4" d="M405.2,430l.49-6.98c.05-.66-.47-1.22-1.13-1.22-3.51-.02-13.39-.05-13.57,0s.38,5.83.62,8.23c.06.58.55,1.03,1.14,1.03h11.33c.6,0,1.1-.46,1.14-1.06Z"/>
    <path class="st4" d="M406.41,411.38c-4-.01-16.58-.05-16.8,0-.2.05.44,4.69.74,6.72.08.54.54.94,1.08.94h14.42c.56,0,1.03-.42,1.09-.98l.56-5.48c.07-.64-.44-1.2-1.08-1.21Z"/>
    <path class="st4" d="M415.75,405.52c-9.02,0-37.4-.02-37.9,0-.46.02,1,2.35,1.66,3.36.18.27,1.22.47,2.44.47h32.52c1.26,0,2.32-.21,2.45-.49l1.27-2.74c.15-.32-.99-.6-2.44-.6Z"/>
  </g>
  <path class="st4" d="M408.42,100.38l-7.83-15.45c-.94-1.85-3.56-1.87-4.54-.04l-7.37,13.88c-.22.41-.33.88-.31,1.35l3.66,94.95c.01.27.21.48.45.48h11.02c.24,0,.44-.21.45-.47l4.74-93.35c.02-.46-.07-.92-.28-1.34ZM400.56,195.37c0,.1-.08.18-.17.18h-4.11c-.09,0-.17-.08-.17-.18l-1.37-35.4c0-.17.03-.35.11-.5l2.75-5.17c.36-.68,1.34-.67,1.69.02l2.92,5.76c.08.15.11.33.11.5l-1.77,34.81Z"/>
  <path class="st7" d="M400,398.07c-1.55.6-3.27.6-4.83,0-9.13-3.55-42.06-17.35-62.35-38.74-19.75-20.54-22.17-54.53-22.17-66.27v-83.99c0-3.71,3.01-6.72,6.72-6.72h160.45c3.71,0,6.72,3.01,6.72,6.72v83.99c0,11.73-2.42,45.73-22.12,66.27-20.32,21.4-53.29,35.19-62.42,38.74Z"/>
  <text class="st3" transform="translate(71.07 645.95)"><tspan x="0" y="0">SAINT-MICHEL</tspan></text>
  <text class="st0" transform="translate(307 714.69)"><tspan x="0" y="0">ANNECY</tspan></text>
  <polygon class="st4" points="499.86 705.47 750.15 706.47 499.86 707.47 499.86 705.47 499.86 705.47"/>
  <polygon class="st4" points="296.79 705.03 46.49 704.03 296.79 703.03 296.79 705.03 296.79 705.03"/>
  <g>
    <path class="st4" d="M302.19,292.09v-24.34c0-4.18-3.39-7.56-7.56-7.56H87.47c-4.18,0-7.56,3.39-7.56,7.56v64.47c0,4.18,3.39,7.56,7.56,7.56h213.49c5.12,0,8.79-5,7.2-9.87-5.07-15.48-5.97-30.72-5.97-37.82Z"/>
    <path class="st4" d="M499.14,259.98c-4.18,0-7.56,3.39-7.56,7.56v24.34c0,7.1-.89,22.34-5.96,37.82-1.59,4.87,2.07,9.86,7.2,9.86h230.09c4.18,0,7.56-3.39,7.56-7.56v-64.47c0-4.18-3.39-7.56-7.56-7.56h-223.77Z"/>
  </g>
  <text class="st8" transform="translate(129.4 321.92)"><tspan x="0" y="0">1926</tspan></text>
  <text class="st8" transform="translate(540.29 322.56)"><tspan x="0" y="0">2026</tspan></text>
  <text class="st1" transform="translate(330.79 512.01)"><tspan x="0" y="0">100 ANS</tspan></text>
  <polygon class="st4" points="327.32 504.15 165.48 503.15 327.32 502.15 327.32 504.15 327.32 504.15"/>
  <polygon class="st4" points="471.6 502.15 633.44 503.15 471.6 504.15 471.6 502.15 471.6 502.15"/>
  <text class="st2" transform="translate(140.07 558.62)"><tspan x="0" y="0">ENSEMBLE SCOLAIRE</tspan></text>
</svg>